<svg aria-roledescription="er" viewBox="-113.82148742675781 0 419.12017822265625 740.8333129882812" style="max-width: 419.12px; left: 0px; top: 0px;" xmlns="http://www.w3.org/2000/svg" width="undefined" id="mermaid-svg" height="undefined"><style>#mermaid-svg{font-family:"trebuchet ms",verdana,arial,sans-serif;font-size:16px;fill:#333;}#mermaid-svg .error-icon{fill:#552222;}#mermaid-svg .error-text{fill:#552222;stroke:#552222;}#mermaid-svg .edge-thickness-normal{stroke-width:2px;}#mermaid-svg .edge-thickness-thick{stroke-width:3.5px;}#mermaid-svg .edge-pattern-solid{stroke-dasharray:0;}#mermaid-svg .edge-pattern-dashed{stroke-dasharray:3;}#mermaid-svg .edge-pattern-dotted{stroke-dasharray:2;}#mermaid-svg .marker{fill:#333333;stroke:#333333;}#mermaid-svg .marker.cross{stroke:#333333;}#mermaid-svg svg{font-family:"trebuchet ms",verdana,arial,sans-serif;font-size:16px;}#mermaid-svg .entityBox{fill:#ECECFF;stroke:#9370DB;}#mermaid-svg .attributeBoxOdd{fill:#ffffff;stroke:#9370DB;}#mermaid-svg .attributeBoxEven{fill:#f2f2f2;stroke:#9370DB;}#mermaid-svg .relationshipLabelBox{fill:hsl(80, 100%, 96.2745098039%);opacity:0.7;background-color:hsl(80, 100%, 96.2745098039%);}#mermaid-svg .relationshipLabelBox rect{opacity:0.5;}#mermaid-svg .relationshipLine{stroke:#333333;}#mermaid-svg .entityTitleText{text-anchor:middle;font-size:18px;fill:#333;}#mermaid-svg :root{--mermaid-font-family:"trebuchet ms",verdana,arial,sans-serif;}</style><g></g><defs><marker orient="auto" markerHeight="18" markerWidth="18" refY="9" refX="0" id="ONLY_ONE_START"><path d="M9,0 L9,18 M15,0 L15,18" fill="none" stroke="gray"></path></marker></defs><defs><marker orient="auto" markerHeight="18" markerWidth="18" refY="9" refX="18" id="ONLY_ONE_END"><path d="M3,0 L3,18 M9,0 L9,18" fill="none" stroke="gray"></path></marker></defs><defs><marker orient="auto" markerHeight="18" markerWidth="30" refY="9" refX="0" id="ZERO_OR_ONE_START"><circle r="6" cy="9" cx="21" fill="white" stroke="gray"></circle><path d="M9,0 L9,18" fill="none" stroke="gray"></path></marker></defs><defs><marker orient="auto" markerHeight="18" markerWidth="30" refY="9" refX="30" id="ZERO_OR_ONE_END"><circle r="6" cy="9" cx="9" fill="white" stroke="gray"></circle><path d="M21,0 L21,18" fill="none" stroke="gray"></path></marker></defs><defs><marker orient="auto" markerHeight="36" markerWidth="45" refY="18" refX="18" id="ONE_OR_MORE_START"><path d="M0,18 Q 18,0 36,18 Q 18,36 0,18 M42,9 L42,27" fill="none" stroke="gray"></path></marker></defs><defs><marker orient="auto" markerHeight="36" markerWidth="45" refY="18" refX="27" id="ONE_OR_MORE_END"><path d="M3,9 L3,27 M9,18 Q27,0 45,18 Q27,36 9,18" fill="none" stroke="gray"></path></marker></defs><defs><marker orient="auto" markerHeight="36" markerWidth="57" refY="18" refX="18" id="ZERO_OR_MORE_START"><circle r="6" cy="18" cx="48" fill="white" stroke="gray"></circle><path d="M0,18 Q18,0 36,18 Q18,36 0,18" fill="none" stroke="gray"></path></marker></defs><defs><marker orient="auto" markerHeight="36" markerWidth="57" refY="18" refX="39" id="ZERO_OR_MORE_END"><circle r="6" cy="18" cx="9" fill="white" stroke="gray"></circle><path d="M21,18 Q39,0 57,18 Q39,36 21,18" fill="none" stroke="gray"></path></marker></defs><path style="stroke: gray; fill: none;" marker-start="url(#ZERO_OR_MORE_START)" marker-end="url(#ONLY_ONE_END)" d="M110.72965040761679,320.41666412353516L104.80859780773892,328.74999745686847C98.88754520786107,337.08333079020184,87.04544000810533,353.74999745686847,81.12438740822746,374.2245346705119C75.20333480834961,394.6990718841553,75.20333480834961,418.9814796447754,75.20333480834961,443.2638874053955C75.20333480834961,467.5462951660156,75.20333480834961,491.82870292663574,75.20333480834961,512.3032401402792C75.20333480834961,532.7777773539225,75.20333480834961,549.4444440205892,75.20333480834961,557.7777773539225L75.20333480834961,566.1111106872559" class="er relationshipLine"></path><path style="stroke: gray; fill: none;" marker-start="url(#ZERO_OR_MORE_START)" marker-end="url(#ONLY_ONE_END)" d="M20,106.45397149535128L8.367222785949707,115.26256912128883C-3.265554428100586,124.07116674722637,-26.531108856201172,141.6883619991015,-38.163886070251465,168.0895518644189C-49.79666328430176,194.49074172973633,-49.79666328430176,229.6759262084961,-49.79666328430176,264.86111068725586C-49.79666328430176,300.0462951660156,-49.79666328430176,335.2314796447754,-49.79666328430176,364.96527576446533C-49.79666328430176,394.6990718841553,-49.79666328430176,418.9814796447754,-49.79666328430176,443.2638874053955C-49.79666328430176,467.5462951660156,-49.79666328430176,491.82870292663574,-38.163886070251465,515.8224140436673C-26.531108856201172,539.8161251606989,-3.265554428100586,563.5211396341418,8.367222785949707,575.3736468708634L20,587.2261541075849" class="er relationshipLine"></path><path style="stroke: gray; fill: none;" marker-start="url(#ZERO_OR_MORE_START)" marker-end="url(#ONLY_ONE_END)" d="M110.5848456353481,109.30555725097656L117.18792684629024,117.63889058430989C123.79100805723239,125.97222391764323,136.99717047911668,142.6388905843099,143.60025169005883,159.30555725097656C150.20333290100098,175.97222391764322,150.20333290100098,192.6388905843099,150.20333290100098,200.97222391764322L150.20333290100098,209.30555725097656" class="er relationshipLine"></path><path style="stroke: gray; fill: none;" marker-start="url(#ZERO_OR_ONE_START)" marker-end="url(#ZERO_OR_ONE_END)" d="M225.20333099365234,466.11111068725586L225.20333099365234,474.4444440205892C225.20333099365234,482.77777735392254,225.20333099365234,499.4444440205892,209.4038874308268,521.1926751626276C193.6044438680013,542.9409063046659,162.00555674235025,569.770701922076,146.20611317952475,583.1855997307811L130.40666961669922,596.600497539486" class="er relationshipLine"></path><path style="stroke: gray; fill: none;" marker-start="url(#ZERO_OR_MORE_START)" marker-end="url(#ZERO_OR_MORE_END)" d="M189.67701539438517,320.41666412353516L195.59806799426303,328.74999745686847C201.5191205941409,337.08333079020184,213.36122579389664,353.74999745686847,219.28227839377448,370.41666412353516C225.20333099365234,387.08333079020184,225.20333099365234,403.74999745686847,225.20333099365234,412.08333079020184L225.20333099365234,420.41666412353516" class="er relationshipLine"></path><g transform="translate(20,566.1111106872559 )" id="entity-User-111ca8c1-9206-41f0-8b4a-64d3f80d2ea8"><rect height="154.7222204208374" width="110.40666961669922" y="0" x="0" class="er entityBox"></rect><text style="dominant-baseline: middle; text-anchor: middle; font-size: 12px;" transform="translate(55.20333480834961,11.944444179534912)" y="0" x="0" id="text-entity-User-111ca8c1-9206-41f0-8b4a-64d3f80d2ea8" class="er entityLabel">User</text><rect height="21.80555534362793" width="54.32481002807617" y="23.888888359069824" x="0" class="er attributeBoxOdd"></rect><text style="dominant-baseline: middle; font-size: 10.2px;" transform="translate(5,34.79166603088379)" y="0" x="0" id="text-entity-User-111ca8c1-9206-41f0-8b4a-64d3f80d2ea8-attr-1-type" class="er entityLabel">Int</text><rect height="21.80555534362793" width="56.08185958862305" y="23.888888359069824" x="54.32481002807617" class="er attributeBoxOdd"></rect><text style="dominant-baseline: middle; font-size: 10.2px;" transform="translate(59.32481002807617,34.79166603088379)" y="0" x="0" id="text-entity-User-111ca8c1-9206-41f0-8b4a-64d3f80d2ea8-attr-1-name" class="er entityLabel">id</text><rect height="21.80555534362793" width="54.32481002807617" y="45.694443702697754" x="0" class="er attributeBoxEven"></rect><text style="dominant-baseline: middle; font-size: 10.2px;" transform="translate(5,56.59722137451172)" y="0" x="0" id="text-entity-User-111ca8c1-9206-41f0-8b4a-64d3f80d2ea8-attr-2-type" class="er entityLabel">String</text><rect height="21.80555534362793" width="56.08185958862305" y="45.694443702697754" x="54.32481002807617" class="er attributeBoxEven"></rect><text style="dominant-baseline: middle; font-size: 10.2px;" transform="translate(59.32481002807617,56.59722137451172)" y="0" x="0" id="text-entity-User-111ca8c1-9206-41f0-8b4a-64d3f80d2ea8-attr-2-name" class="er entityLabel">name</text><rect height="21.80555534362793" width="54.32481002807617" y="67.49999904632568" x="0" class="er attributeBoxOdd"></rect><text style="dominant-baseline: middle; font-size: 10.2px;" transform="translate(5,78.40277671813965)" y="0" x="0" id="text-entity-User-111ca8c1-9206-41f0-8b4a-64d3f80d2ea8-attr-3-type" class="er entityLabel">String</text><rect height="21.80555534362793" width="56.08185958862305" y="67.49999904632568" x="54.32481002807617" class="er attributeBoxOdd"></rect><text style="dominant-baseline: middle; font-size: 10.2px;" transform="translate(59.32481002807617,78.40277671813965)" y="0" x="0" id="text-entity-User-111ca8c1-9206-41f0-8b4a-64d3f80d2ea8-attr-3-name" class="er entityLabel">email</text><rect height="21.80555534362793" width="54.32481002807617" y="89.30555438995361" x="0" class="er attributeBoxEven"></rect><text style="dominant-baseline: middle; font-size: 10.2px;" transform="translate(5,100.20833206176758)" y="0" x="0" id="text-entity-User-111ca8c1-9206-41f0-8b4a-64d3f80d2ea8-attr-4-type" class="er entityLabel">String</text><rect height="21.80555534362793" width="56.08185958862305" y="89.30555438995361" x="54.32481002807617" class="er attributeBoxEven"></rect><text style="dominant-baseline: middle; font-size: 10.2px;" transform="translate(59.32481002807617,100.20833206176758)" y="0" x="0" id="text-entity-User-111ca8c1-9206-41f0-8b4a-64d3f80d2ea8-attr-4-name" class="er entityLabel">password</text><rect height="21.80555534362793" width="54.32481002807617" y="111.11110973358154" x="0" class="er attributeBoxOdd"></rect><text style="dominant-baseline: middle; font-size: 10.2px;" transform="translate(5,122.01388740539551)" y="0" x="0" id="text-entity-User-111ca8c1-9206-41f0-8b4a-64d3f80d2ea8-attr-5-type" class="er entityLabel">DateTime</text><rect height="21.80555534362793" width="56.08185958862305" y="111.11110973358154" x="54.32481002807617" class="er attributeBoxOdd"></rect><text style="dominant-baseline: middle; font-size: 10.2px;" transform="translate(59.32481002807617,122.01388740539551)" y="0" x="0" id="text-entity-User-111ca8c1-9206-41f0-8b4a-64d3f80d2ea8-attr-5-name" class="er entityLabel">createdAt</text><rect height="21.80555534362793" width="54.32481002807617" y="132.91666507720947" x="0" class="er attributeBoxEven"></rect><text style="dominant-baseline: middle; font-size: 10.2px;" transform="translate(5,143.81944274902344)" y="0" x="0" id="text-entity-User-111ca8c1-9206-41f0-8b4a-64d3f80d2ea8-attr-6-type" class="er entityLabel">Boolean</text><rect height="21.80555534362793" width="56.08185958862305" y="132.91666507720947" x="54.32481002807617" class="er attributeBoxEven"></rect><text style="dominant-baseline: middle; font-size: 10.2px;" transform="translate(59.32481002807617,143.81944274902344)" y="0" x="0" id="text-entity-User-111ca8c1-9206-41f0-8b4a-64d3f80d2ea8-attr-6-name" class="er entityLabel">isAdmin</text></g><g transform="translate(100.20333671569824,209.30555725097656 )" id="entity-Plan-42f206c0-24fb-4ce0-9d96-f5cdc2b85c30"><rect height="111.11110973358154" width="100" y="0" x="0" class="er entityBox"></rect><text style="dominant-baseline: middle; text-anchor: middle; font-size: 12px;" transform="translate(50,11.944444179534912)" y="0" x="0" id="text-entity-Plan-42f206c0-24fb-4ce0-9d96-f5cdc2b85c30" class="er entityLabel">Plan</text><rect height="21.80555534362793" width="57.72555637359619" y="23.888888359069824" x="0" class="er attributeBoxOdd"></rect><text style="dominant-baseline: middle; font-size: 10.2px;" transform="translate(5,34.79166603088379)" y="0" x="0" id="text-entity-Plan-42f206c0-24fb-4ce0-9d96-f5cdc2b85c30-attr-1-type" class="er entityLabel">Int</text><rect height="21.80555534362793" width="42.27444362640381" y="23.888888359069824" x="57.72555637359619" class="er attributeBoxOdd"></rect><text style="dominant-baseline: middle; font-size: 10.2px;" transform="translate(62.72555637359619,34.79166603088379)" y="0" x="0" id="text-entity-Plan-42f206c0-24fb-4ce0-9d96-f5cdc2b85c30-attr-1-name" class="er entityLabel">id</text><rect height="21.80555534362793" width="57.72555637359619" y="45.694443702697754" x="0" class="er attributeBoxEven"></rect><text style="dominant-baseline: middle; font-size: 10.2px;" transform="translate(5,56.59722137451172)" y="0" x="0" id="text-entity-Plan-42f206c0-24fb-4ce0-9d96-f5cdc2b85c30-attr-2-type" class="er entityLabel">DateTime</text><rect height="21.80555534362793" width="42.27444362640381" y="45.694443702697754" x="57.72555637359619" class="er attributeBoxEven"></rect><text style="dominant-baseline: middle; font-size: 10.2px;" transform="translate(62.72555637359619,56.59722137451172)" y="0" x="0" id="text-entity-Plan-42f206c0-24fb-4ce0-9d96-f5cdc2b85c30-attr-2-name" class="er entityLabel">time</text><rect height="21.80555534362793" width="57.72555637359619" y="67.49999904632568" x="0" class="er attributeBoxOdd"></rect><text style="dominant-baseline: middle; font-size: 10.2px;" transform="translate(5,78.40277671813965)" y="0" x="0" id="text-entity-Plan-42f206c0-24fb-4ce0-9d96-f5cdc2b85c30-attr-3-type" class="er entityLabel">String</text><rect height="21.80555534362793" width="42.27444362640381" y="67.49999904632568" x="57.72555637359619" class="er attributeBoxOdd"></rect><text style="dominant-baseline: middle; font-size: 10.2px;" transform="translate(62.72555637359619,78.40277671813965)" y="0" x="0" id="text-entity-Plan-42f206c0-24fb-4ce0-9d96-f5cdc2b85c30-attr-3-name" class="er entityLabel">place</text><rect height="21.80555534362793" width="57.72555637359619" y="89.30555438995361" x="0" class="er attributeBoxEven"></rect><text style="dominant-baseline: middle; font-size: 10.2px;" transform="translate(5,100.20833206176758)" y="0" x="0" id="text-entity-Plan-42f206c0-24fb-4ce0-9d96-f5cdc2b85c30-attr-4-type" class="er entityLabel">Float</text><rect height="21.80555534362793" width="42.27444362640381" y="89.30555438995361" x="57.72555637359619" class="er attributeBoxEven"></rect><text style="dominant-baseline: middle; font-size: 10.2px;" transform="translate(62.72555637359619,100.20833206176758)" y="0" x="0" id="text-entity-Plan-42f206c0-24fb-4ce0-9d96-f5cdc2b85c30-attr-4-name" class="er entityLabel">length</text></g><g transform="translate(20,20 )" id="entity-Comment-13c6aa17-8352-4d34-be2a-02e6c56c6b0d"><rect height="89.30555438995361" width="110.40666961669922" y="0" x="0" class="er entityBox"></rect><text style="dominant-baseline: middle; text-anchor: middle; font-size: 12px;" transform="translate(55.20333480834961,11.944444179534912)" y="0" x="0" id="text-entity-Comment-13c6aa17-8352-4d34-be2a-02e6c56c6b0d" class="er entityLabel">Comment</text><rect height="21.80555534362793" width="54.32481002807617" y="23.888888359069824" x="0" class="er attributeBoxOdd"></rect><text style="dominant-baseline: middle; font-size: 10.2px;" transform="translate(5,34.79166603088379)" y="0" x="0" id="text-entity-Comment-13c6aa17-8352-4d34-be2a-02e6c56c6b0d-attr-1-type" class="er entityLabel">Int</text><rect height="21.80555534362793" width="56.08185958862305" y="23.888888359069824" x="54.32481002807617" class="er attributeBoxOdd"></rect><text style="dominant-baseline: middle; font-size: 10.2px;" transform="translate(59.32481002807617,34.79166603088379)" y="0" x="0" id="text-entity-Comment-13c6aa17-8352-4d34-be2a-02e6c56c6b0d-attr-1-name" class="er entityLabel">id</text><rect height="21.80555534362793" width="54.32481002807617" y="45.694443702697754" x="0" class="er attributeBoxEven"></rect><text style="dominant-baseline: middle; font-size: 10.2px;" transform="translate(5,56.59722137451172)" y="0" x="0" id="text-entity-Comment-13c6aa17-8352-4d34-be2a-02e6c56c6b0d-attr-2-type" class="er entityLabel">String</text><rect height="21.80555534362793" width="56.08185958862305" y="45.694443702697754" x="54.32481002807617" class="er attributeBoxEven"></rect><text style="dominant-baseline: middle; font-size: 10.2px;" transform="translate(59.32481002807617,56.59722137451172)" y="0" x="0" id="text-entity-Comment-13c6aa17-8352-4d34-be2a-02e6c56c6b0d-attr-2-name" class="er entityLabel">content</text><rect height="21.80555534362793" width="54.32481002807617" y="67.49999904632568" x="0" class="er attributeBoxOdd"></rect><text style="dominant-baseline: middle; font-size: 10.2px;" transform="translate(5,78.40277671813965)" y="0" x="0" id="text-entity-Comment-13c6aa17-8352-4d34-be2a-02e6c56c6b0d-attr-3-type" class="er entityLabel">DateTime</text><rect height="21.80555534362793" width="56.08185958862305" y="67.49999904632568" x="54.32481002807617" class="er attributeBoxOdd"></rect><text style="dominant-baseline: middle; font-size: 10.2px;" transform="translate(59.32481002807617,78.40277671813965)" y="0" x="0" id="text-entity-Comment-13c6aa17-8352-4d34-be2a-02e6c56c6b0d-attr-3-name" class="er entityLabel">createdAt</text></g><g transform="translate(175.2033348083496,420.41666412353516 )" id="entity-Itinerary-87f61b4f-02d4-4057-8d7b-9b1af03586a0"><rect height="45.694443702697754" width="100" y="0" x="0" class="er entityBox"></rect><text style="dominant-baseline: middle; text-anchor: middle; font-size: 12px;" transform="translate(50,11.944444179534912)" y="0" x="0" id="text-entity-Itinerary-87f61b4f-02d4-4057-8d7b-9b1af03586a0" class="er entityLabel">Itinerary</text><rect height="21.80555534362793" width="52.33739185333252" y="23.888888359069824" x="0" class="er attributeBoxOdd"></rect><text style="dominant-baseline: middle; font-size: 10.2px;" transform="translate(5,34.79166603088379)" y="0" x="0" id="text-entity-Itinerary-87f61b4f-02d4-4057-8d7b-9b1af03586a0-attr-1-type" class="er entityLabel">Int</text><rect height="21.80555534362793" width="47.66260814666748" y="23.888888359069824" x="52.33739185333252" class="er attributeBoxOdd"></rect><text style="dominant-baseline: middle; font-size: 10.2px;" transform="translate(57.33739185333252,34.79166603088379)" y="0" x="0" id="text-entity-Itinerary-87f61b4f-02d4-4057-8d7b-9b1af03586a0-attr-1-name" class="er entityLabel">id</text></g><rect height="13.888888359069824" width="59.743011474609375" y="432.10594034194946" x="45.33317565917969" class="er relationshipLabelBox"></rect><text style="text-anchor: middle; dominant-baseline: middle; font-size: 12px;" y="439.0503845214844" x="75.20468139648438" id="rel1" class="er relationshipLabel">PlanToUser</text><rect height="13.888888359069824" width="88.04965209960938" y="338.49543619155884" x="-93.82148742675781" class="er relationshipLabelBox"></rect><text style="text-anchor: middle; dominant-baseline: middle; font-size: 12px;" y="345.43988037109375" x="-49.796661376953125" id="rel2" class="er relationshipLabel">CommentToUser</text><rect height="13.888888359069824" width="86.4040756225586" y="148.06509256362915" x="98.5558967590332" class="er relationshipLabelBox"></rect><text style="text-anchor: middle; dominant-baseline: middle; font-size: 12px;" y="155.00953674316406" x="141.7579345703125" id="rel3" class="er relationshipLabel">CommentToPlan</text><rect height="13.888888359069824" width="82.82307434082031" y="533.5326676368713" x="151.48072052001953" class="er relationshipLabelBox"></rect><text style="text-anchor: middle; dominant-baseline: middle; font-size: 12px;" y="540.4771118164062" x="192.8922576904297" id="rel4" class="er relationshipLabel">ItineraryToUser</text><rect height="13.888888359069824" width="134.75477600097656" y="359.88972330093384" x="150.54393768310547" class="er relationshipLabelBox"></rect><text style="text-anchor: middle; dominant-baseline: middle; font-size: 12px;" y="366.83416748046875" x="217.92132568359375" id="rel5" class="er relationshipLabel">ItineraryToPlan (implicit)</text></svg>